<svg xmlns="http://www.w3.org/2000/svg" aria-hidden="true" style="position:absolute;width:0;height:0;overflow:hidden">
  <defs>
    <symbol id="icon-arrow_downward_24px" viewBox="0 0 21 32">
      <path d="m21.333 21.333-1.88-1.88L12 26.893V0H9.333v26.893l-7.44-7.453L0 21.333 10.667 32l10.667-10.667z"/>
    </symbol>
    <symbol id="icon-twitter" viewBox="0 0 32 32">
      <path d="M29.946 8.017a11.433 11.433 0 0 1-3.286.901 5.74 5.74 0 0 0 2.516-3.166 11.46 11.46 0 0 1-3.634 1.389 5.716 5.716 0 0 0-4.177-1.807 5.722 5.722 0 0 0-5.574 7.026A16.245 16.245 0 0 1 3.997 6.381a5.69 5.69 0 0 0-.775 2.877 5.719 5.719 0 0 0 2.546 4.763 5.7 5.7 0 0 1-2.592-.716l-.001.072a5.725 5.725 0 0 0 4.59 5.611 5.722 5.722 0 0 1-2.585.098 5.728 5.728 0 0 0 5.345 3.974 11.48 11.48 0 0 1-7.107 2.45c-.462 0-.917-.027-1.365-.08a16.192 16.192 0 0 0 8.772 2.571c10.525 0 16.281-8.719 16.281-16.281 0-.248-.006-.495-.017-.74a11.636 11.636 0 0 0 2.855-2.962z"/>
    </symbol>
    <symbol id="icon-instagram" viewBox="0 0 32 32">
      <path d="M10.4 2.667h11.2a7.733 7.733 0 0 1 7.733 7.733v11.2a7.733 7.733 0 0 1-7.733 7.733H10.4A7.733 7.733 0 0 1 2.667 21.6V10.4A7.733 7.733 0 0 1 10.4 2.667zm-.267 2.666a4.8 4.8 0 0 0-4.8 4.8v11.733a4.8 4.8 0 0 0 4.8 4.8h11.733a4.8 4.8 0 0 0 4.8-4.8V10.133a4.8 4.8 0 0 0-4.8-4.8H10.133zm12.867 2a1.667 1.667 0 1 1 0 3.333 1.667 1.667 0 0 1 0-3.333zm-7 2a6.667 6.667 0 1 1 0 13.334 6.667 6.667 0 0 1 0-13.334zM16 12a4 4 0 1 0 0 8 4 4 0 0 0 0-8z"/>
    </symbol>
    <symbol id="icon-cart" viewBox="0 0 32 32">
      <path d="M16 2.667C8.64 2.667 2.667 8.64 2.667 16S8.64 29.333 16 29.333 29.333 23.36 29.333 16 23.36 2.667 16 2.667zM9.427 24.373C10 23.173 13.494 22 16 22s6.013 1.173 6.573 2.373c-1.813 1.44-4.093 2.293-6.573 2.293s-4.76-.853-6.573-2.293zM24.48 22.44c-1.907-2.32-6.533-3.107-8.48-3.107s-6.573.787-8.48 3.107A10.6 10.6 0 0 1 5.333 16C5.333 10.12 10.12 5.333 16 5.333S26.667 10.12 26.667 16a10.6 10.6 0 0 1-2.187 6.44zM16 8c-2.587 0-4.667 2.08-4.667 4.667s2.08 4.667 4.667 4.667c2.587 0 4.667-2.08 4.667-4.667S18.587 8 16 8zm0 6.667c-1.107 0-2-.893-2-2s.893-2 2-2 2 .893 2 2-.893 2-2 2z"/>
    </symbol>
  </defs>
</svg>
